<?xml version="1.0" standalone="no"?>
<!DOCTYPE svg PUBLIC "-//W3C//DTD SVG 20010904//EN"
 "http://www.w3.org/TR/2001/REC-SVG-20010904/DTD/svg10.dtd">
<svg version="1.0" xmlns="http://www.w3.org/2000/svg"
 width="512.000000pt" height="512.000000pt" viewBox="0 0 512.000000 512.000000"
 preserveAspectRatio="xMidYMid meet">
<metadata>
Created by potrace 1.11, written by Peter Selinger 2001-2013
</metadata>
<g transform="translate(0.000000,512.000000) scale(0.100000,-0.100000)"
fill="#000000" stroke="none">
<path d="M0 2560 l0 -2560 2560 0 2560 0 0 2560 0 2560 -2560 0 -2560 0 0
-2560z m1640 1356 c210 -45 334 -108 446 -228 101 -109 158 -231 185 -393 16
-102 6 -297 -20 -400 -86 -332 -355 -554 -766 -631 -107 -20 -418 -27 -522
-11 l-53 8 0 -566 0 -565 -160 0 -160 0 0 1370 0 1370 23 14 c18 12 156 31
352 50 22 2 166 2 320 1 210 -2 299 -7 355 -19z m1494 -12 c3 -9 6 -307 6
-662 l0 -647 35 40 34 40 1 -42 c0 -24 3 -43 8 -42 4 0 45 54 92 119 73 101
912 1141 963 1192 15 16 38 18 198 18 174 0 180 -1 167 -19 -7 -10 -227 -269
-488 -575 -261 -307 -474 -564 -474 -571 1 -11 733 -1098 1022 -1517 l74 -108
-214 0 -213 0 -430 642 c-392 586 -496 733 -515 733 -4 0 -64 -66 -133 -146
l-127 -147 0 -541 0 -541 -160 0 -160 0 0 1383 c0 1062 3 1386 12 1395 8 8 57
12 154 12 120 0 143 -2 148 -16z"/>
<path d="M1038 3681 c-42 -5 -88 -11 -102 -15 l-26 -6 0 -549 0 -548 31 -7
c18 -3 37 -13 43 -21 31 -41 390 -45 539 -6 167 44 302 140 366 260 88 165 94
397 15 552 -84 167 -215 269 -410 320 -90 23 -325 33 -456 20z"/>
</g>
</svg>
